<svg class="w-6 h-7 mr-1.5 fill-current"><path d="M10.99.485C9.82.105 8.613-.024 7.38.004c-1.05.024-2.087.143-3.097.404a11.38 11.38 0 0 0-2.234.833L0 5.081C.141 5 3.973 2.427 8.407 3.164c1.634.272 2.86 1.18 3.574 2.61.579 1.156.708 2.374.464 3.628-.27 1.378-.917 2.613-1.678 3.802-.761 1.185-2.724 3.02-3.362 4.491-.023.05-.103.036-.103-.016-.12-2.82-.185-6.643-.232-9.39l-3.359.104c-.035.02-.073.036-.111.055-.044.022-.097.093-.091.132.064.396.167 1.004.244 1.4l.443 2.335.423 2.23.441 2.309c.144.748.285 1.496.426 2.247.147.773.294 1.546.444 2.321.035.193.074.385.109.578l1.666-.16c-.006-.572-.035-.63-.076-1.199-.047-.718.085-1.375.514-1.975.153-.217.297-.44.455-.654.732-.98 1.59-1.865 2.428-2.765 1.278-1.375 2.574-3.27 3.688-4.772.91-1.224 1.384-2.56 1.27-4.065-.095-1.233-.442-2.385-1.212-3.406C13.83 1.75 12.51.98 10.99.484zM7.457 24c-1.404.03-2.483 1.145-2.457 2.546A2.513 2.513 0 0 0 7.546 29 2.483 2.483 0 0 0 10 26.463c-.03-1.408-1.154-2.49-2.543-2.463z"></path></svg>